<?xml version="1.0" encoding="UTF-8" standalone="no"?>
<svg
   xmlns:dc="http://purl.org/dc/elements/1.1/"
   xmlns:cc="http://creativecommons.org/ns#"
   xmlns:rdf="http://www.w3.org/1999/02/22-rdf-syntax-ns#"
   xmlns:svg="http://www.w3.org/2000/svg"
   xmlns="http://www.w3.org/2000/svg"
   xmlns:sodipodi="http://sodipodi.sourceforge.net/DTD/sodipodi-0.dtd"
   xmlns:inkscape="http://www.inkscape.org/namespaces/inkscape"
   width="554pt"
   height="540pt"
   viewBox="0 0 554 540"
   version="1.1"
   id="svg2"
   inkscape:version="0.91 r13725"
   sodipodi:docname="emblem_high_black.svg">
  <metadata
     id="metadata16">
    <rdf:RDF>
      <cc:Work
         rdf:about="">
        <dc:format>image/svg+xml</dc:format>
        <dc:type
           rdf:resource="http://purl.org/dc/dcmitype/StillImage" />
      </cc:Work>
    </rdf:RDF>
  </metadata>
  <defs
     id="defs14" />
  <sodipodi:namedview
     pagecolor="#ffffff"
     bordercolor="#666666"
     borderopacity="1"
     objecttolerance="10"
     gridtolerance="10"
     guidetolerance="10"
     inkscape:pageopacity="0"
     inkscape:pageshadow="2"
     inkscape:window-width="1366"
     inkscape:window-height="689"
     id="namedview12"
     showgrid="false"
     inkscape:zoom="0.49445096"
     inkscape:cx="246.74019"
     inkscape:cy="332.57849"
     inkscape:window-x="0"
     inkscape:window-y="0"
     inkscape:window-maximized="1"
     inkscape:current-layer="svg2" />
  <path
     d="m 281.21227,41.119708 c -11.55,6.67 -23.23937,13.139375 -34.60937,20.109375 0.11,26 -6.3e-4,52.010307 0.0594,78.020307 0.54,1.64 -1.05937,2.3 -2.10937,3 -10.75,6.31 -21.69938,12.26907 -32.30938,18.78907 -11.74,-6.42 -23.17125,-13.37938 -34.83125,-19.95938 -11.67,6.59 -23.28937,13.28969 -34.80937,20.12969 0.08,13.21 0.08,26.42062 0,39.64062 11.37,6.93 23.17062,13.21907 34.49062,20.18907 0.1,13.31 0.11,26.63062 0,39.94062 -22.76,13.67 -46.09031,26.56 -68.97031,40.1 0.06,26.63 0.01,53.26062 0.0297,79.89062 -11.509998,6.6 -22.909998,13.37876 -34.499998,19.81876 l 0,80.48124 c 11.59,6.43 22.98,13.22938 34.499998,19.80938 -0.01,-26.69 0.0197,-53.38969 -0.0203,-80.07969 11.46,6.79 23.07093,13.31907 34.56093,20.03907 -0.12,13.36 0.0197,26.73062 -0.0703,40.09062 10.66,-6.19 21.29969,-12.42062 32.02969,-18.49062 0.93,-0.71 2.81062,-1.00969 2.49062,-2.57969 0.04,-13.07 -0.0113,-26.15031 0.0187,-39.22031 -11.51,-6.56 -23.05968,-13.08969 -34.37968,-19.92969 -0.32,-13.25 -0.01,-26.52031 -0.15,-39.77031 23.1,-13.39 46.17062,-26.84938 69.39062,-40.00938 23.12,13.21 46.19,26.54 69.2,39.95 23.12,-13.39 46.25906,-26.73031 69.38906,-40.07031 22.96,13.47 46.18063,26.51031 69.09063,40.07031 -0.09,13.3 -0.09,26.60062 0,39.89062 -11.39,6.92 -23.08,13.32938 -34.55,20.10938 l 0,39.9 c 11.51,6.71 23.07937,13.33 34.60937,20 -0.26,-13.27 -0.0188,-26.55969 -0.11875,-39.82969 11.67,-6.74 23.32969,-13.51062 35.02969,-20.19062 -0.13,26.67 0.14031,53.35031 -0.12969,80.02031 11.53,-6.67 23.09938,-13.29 34.60938,-20 l 0,-79.9 c -11.47,-6.77 -23.14063,-13.19969 -34.54063,-20.07969 0.12,-26.6 -0.0288,-53.21093 0.0813,-79.81093 -23.15,-13.47 -46.39062,-26.75876 -69.54062,-40.21876 l 0,-39.89062 c 11.16,-6.56 22.46937,-12.87969 33.60937,-19.47969 1.36,-0.64 0.74032,-2.36031 0.92032,-3.52031 -0.07,-11.98 0.0103,-23.96062 -0.0297,-35.94062 0.19,-1.65 -1.79031,-2.09907 -2.82031,-2.88907 -10.65,-5.94 -21.05,-12.37969 -31.8,-18.12969 -11.47,6.67 -23.01,13.22907 -34.45,19.93907 -11.42,-6.75 -23.11032,-13.08907 -34.37032,-20.03907 -0.15,-26.64 -0.0194,-53.300617 -0.0594,-79.940617 -11.73,-6.49 -23.19063,-13.509375 -34.94063,-19.959375 z m 23.08125,159.879682 c 7.65,13.33 15.62,26.51 22.95,40 -7.27,13.53 -15.32062,26.69 -22.94062,40.05 -15.36,-0.05 -30.73,-0.0103 -46.1,-0.0203 -7.76,-13.3 -15.37969,-26.69938 -23.12969,-40.00938 7.77,-13.3 15.35906,-26.69062 23.13906,-39.99062 15.36,-0.02 30.72125,0.0403 46.08125,-0.0297 z m -23.05469,20.02031 c -3.88124,-0.007 -7.76093,-3.1e-4 -11.63593,0.0797 -3.61,6.7 -7.63938,13.17938 -11.35938,19.80938 3.5,6.81 7.78907,13.23062 11.33907,20.04062 7.76,0.18 15.53,0.0297 23.3,0.0797 3.67,-6.73 7.8,-13.21 11.35,-20 -3.56,-6.79 -7.68,-13.27 -11.35,-20 -3.88,0.02 -7.76251,-0.002 -11.64376,-0.009 z"
     id="path6"
     inkscape:connector-curvature="0"
     inkscape:export-xdpi="313.07114"
     inkscape:export-ydpi="313.07114" />
</svg>
