<?xml version="1.0" encoding="UTF-8" ?>
<!DOCTYPE svg PUBLIC "-//W3C//DTD SVG 1.1//EN" "http://www.w3.org/Graphics/SVG/1.1/DTD/svg11.dtd">
<svg width="1766pt" height="380pt" viewBox="0 0 1766 380" version="1.1" xmlns="http://www.w3.org/2000/svg">
<path fill="#020202" d=" M 693.01 40.20 C 704.59 46.75 716.12 53.39 727.55 60.18 C 727.37 86.76 727.67 113.35 727.40 139.92 C 750.61 126.80 773.55 113.21 796.74 100.05 C 830.59 119.50 864.36 139.09 898.19 158.57 C 899.12 159.19 900.76 159.69 900.50 161.15 C 900.51 200.39 900.51 239.63 900.50 278.86 C 900.76 280.34 899.06 280.82 898.12 281.46 C 864.32 300.94 830.57 320.50 796.76 339.95 C 762.25 320.21 727.89 300.20 693.43 280.38 C 693.32 280.04 693.12 279.37 693.01 279.04 C 692.99 199.43 692.99 119.82 693.01 40.20 Z" />
<path fill="#020202" d=" M 1212.37 60.07 C 1223.98 66.63 1235.54 73.27 1247.00 80.07 C 1247.00 160.02 1247.00 239.98 1247.00 319.93 C 1235.54 326.73 1223.98 333.37 1212.38 339.93 C 1212.66 279.63 1212.42 219.32 1212.50 159.01 C 1212.42 126.03 1212.66 93.04 1212.37 60.07 Z" />
<path fill="#020202" d=" M 312.01 60.20 C 323.56 66.80 335.13 73.39 346.55 80.21 C 346.46 160.08 346.49 239.95 346.54 319.83 C 335.10 326.60 323.56 333.22 312.01 339.79 C 311.99 246.60 311.99 153.40 312.01 60.20 Z" />
<path fill="#020202" d=" M 1559.01 60.21 C 1570.59 66.75 1582.13 73.39 1593.55 80.19 C 1593.37 120.10 1593.67 160.02 1593.40 199.92 C 1612.19 189.34 1630.74 178.35 1649.47 167.67 C 1653.96 165.26 1658.13 162.22 1662.81 160.20 C 1674.44 166.55 1685.80 173.42 1697.31 180.00 C 1674.26 193.38 1651.16 206.66 1628.08 220.00 C 1651.23 233.41 1674.47 246.67 1697.55 260.20 C 1697.46 273.49 1697.49 286.79 1697.54 300.09 C 1662.80 280.13 1628.20 259.93 1593.40 240.08 C 1593.67 266.65 1593.37 293.24 1593.55 319.81 C 1582.12 326.61 1570.59 333.25 1559.01 339.80 C 1558.99 246.60 1559.00 153.40 1559.01 60.21 Z" />
<path fill="#020202" d=" M 69.50 159.75 C 104.18 140.05 138.57 119.83 173.22 100.05 C 207.81 120.00 242.46 139.87 276.95 160.00 C 265.64 166.80 254.09 173.18 242.74 179.88 C 240.52 179.26 238.62 177.66 236.57 176.58 C 215.47 164.42 194.38 152.23 173.28 140.06 C 150.11 153.26 127.02 166.61 103.98 180.05 C 104.01 206.68 104.01 233.31 103.98 259.95 C 127.01 273.39 150.11 286.73 173.28 299.94 C 196.02 286.81 218.79 273.72 241.50 260.53 C 242.54 259.46 243.63 260.70 244.59 261.16 C 255.30 267.57 266.27 273.54 276.95 280.00 C 242.48 300.14 207.82 319.95 173.28 339.95 C 138.59 320.22 104.21 299.94 69.50 280.25 C 69.50 240.08 69.50 199.92 69.50 159.75 Z" />
<path fill="#020202" d=" M 969.97 160.05 C 1004.57 139.90 1039.29 119.95 1073.98 99.95 C 1108.53 120.12 1143.21 140.11 1177.93 160.00 C 1143.16 179.80 1108.64 200.05 1073.91 219.91 C 1062.17 213.52 1050.78 206.48 1039.09 200.00 C 1062.19 186.73 1085.31 173.48 1108.30 160.01 C 1096.98 153.10 1085.28 146.86 1073.97 139.96 C 1050.78 153.32 1027.57 166.63 1004.47 180.14 C 1004.53 206.71 1004.52 233.29 1004.47 259.86 C 1027.57 273.37 1050.78 286.68 1073.97 300.04 C 1108.55 279.87 1143.25 259.87 1177.99 239.96 C 1178.02 253.29 1177.99 266.62 1178.00 279.95 C 1143.21 299.78 1108.66 320.07 1073.88 339.91 C 1039.16 320.08 1004.55 300.03 969.97 279.95 C 970.02 239.98 970.02 200.02 969.97 160.05 Z" />
<path fill="#020202" d=" M 1316.86 159.84 C 1351.19 139.70 1385.77 119.91 1420.27 100.05 C 1454.07 119.46 1487.77 139.05 1521.56 158.48 C 1522.13 158.86 1523.25 159.62 1523.82 160.00 C 1506.94 170.22 1489.64 179.77 1472.62 189.77 C 1455.15 199.80 1437.76 209.95 1420.28 219.95 C 1408.70 213.41 1397.20 206.72 1385.71 200.00 C 1408.71 186.56 1431.84 173.34 1454.89 160.00 C 1443.35 153.36 1431.84 146.66 1420.28 140.06 C 1397.14 153.32 1374.01 166.60 1351.00 180.07 C 1351.00 206.69 1351.00 233.31 1351.00 259.92 C 1374.00 273.41 1397.14 286.67 1420.26 299.94 C 1454.87 279.98 1489.55 260.13 1524.02 239.94 C 1523.99 253.27 1523.98 266.60 1524.03 279.93 C 1489.57 300.14 1454.87 319.97 1420.27 339.95 C 1401.91 329.52 1383.71 318.83 1365.38 308.36 C 1349.26 298.84 1332.83 289.80 1316.82 280.13 C 1315.99 275.88 1316.74 271.33 1316.50 266.97 C 1316.49 235.66 1316.49 204.34 1316.50 173.03 C 1316.77 168.67 1315.94 164.06 1316.86 159.84 Z" />
<path fill="#020202" d=" M 415.46 119.91 C 427.18 126.63 438.89 133.35 450.54 140.17 C 450.42 180.09 450.60 220.02 450.45 259.94 C 473.36 273.52 496.59 286.56 519.56 300.03 C 542.69 286.65 565.85 273.31 588.99 259.93 C 588.99 219.97 589.03 180.01 588.98 140.05 C 600.37 133.12 612.14 126.82 623.53 119.88 C 623.50 173.19 623.46 226.49 623.55 279.80 C 589.05 300.15 554.18 319.93 519.52 340.03 C 484.90 319.86 450.11 299.97 415.46 279.84 C 415.52 226.53 415.52 173.22 415.46 119.91 Z" />
<path fill="#fefefe" d=" M 727.45 180.04 C 750.51 166.67 773.59 153.30 796.73 140.06 C 819.86 153.32 842.94 166.66 866.00 180.06 C 866.00 206.68 866.00 233.31 866.00 259.94 C 842.95 273.34 819.86 286.67 796.74 299.94 C 773.59 286.72 750.52 273.33 727.45 259.96 C 727.54 233.32 727.54 206.68 727.45 180.04 Z" />
<path fill="#020202" d=" M 161.46 200.05 C 169.24 199.94 177.02 200.03 184.79 200.00 C 188.43 206.74 192.68 213.18 196.10 220.03 C 192.63 226.84 188.44 233.28 184.79 240.00 C 177.01 239.96 169.23 240.07 161.45 239.94 C 157.99 233.13 153.76 226.75 150.20 220.00 C 153.77 213.25 157.98 206.85 161.46 200.05 Z" />
<path fill="#020202" d=" M 774.51 218.50 C 777.94 212.29 781.74 206.29 785.04 200.00 C 792.76 199.99 800.49 200.03 808.21 199.98 C 812.11 206.63 815.97 213.30 819.79 220.00 C 815.96 226.70 812.11 233.39 808.20 240.03 C 800.47 239.96 792.76 240.02 785.04 240.00 C 781.74 233.70 777.93 227.69 774.49 221.47 C 773.80 220.48 773.80 219.49 774.51 218.50 Z" />
</svg>
